<?xml version="1.0" encoding="utf-8"?>
<!-- Generator: Adobe Illustrator 26.0.2, SVG Export Plug-In . SVG Version: 6.00 Build 0)  -->
<svg version="1.1" id="Layer_1" xmlns="http://www.w3.org/2000/svg" xmlns:xlink="http://www.w3.org/1999/xlink" x="0px" y="0px"
	 viewBox="0 0 32 32" style="enable-background:new 0 0 32 32;" xml:space="preserve">
<style type="text/css">
	.st0{fill:#F7931A;}
	.st1{fill:#1BFED7;}
	.st2{fill:#FFFFFF;}
</style>
<g>
	<circle class="st0" cx="16" cy="16" r="14.4"/>
	<path class="st1" d="M16,31.5c-8.6,0-15.5-7-15.5-15.5S7.4,0.5,16,0.5s15.5,7,15.5,15.5S24.6,31.5,16,31.5z M16,2.8
		C8.7,2.8,2.8,8.7,2.8,16S8.7,29.2,16,29.2S29.2,23.3,29.2,16S23.3,2.8,16,2.8z"/>
	<path class="st2" d="M22.4,13.9c0.3-1.9-1.2-3-3.2-3.7l0.7-2.6l-1.6-0.4l-0.6,2.6c-0.4-0.1-0.9-0.2-1.3-0.3L17,6.9l-1.6-0.4
		l-0.7,2.6c-0.3-0.1-0.7-0.2-1-0.2v0l-2.2-0.6L11.1,10c0,0,1.2,0.3,1.2,0.3c0.6,0.2,0.8,0.6,0.7,0.9l-0.7,3c0.1,0,0.1,0,0.2,0.1
		l-0.2,0l-1,4.2c-0.1,0.2-0.3,0.5-0.7,0.4c0,0-1.2-0.3-1.2-0.3l-0.8,1.8l2.1,0.5c0.4,0.1,0.8,0.2,1.1,0.3l-0.7,2.7l1.6,0.4l0.7-2.6
		c0.4,0.1,0.9,0.2,1.3,0.3L14,24.6l1.6,0.4l0.7-2.7c2.7,0.5,4.8,0.3,5.6-2.2c0.7-2,0-3.1-1.5-3.9C21.4,16,22.2,15.3,22.4,13.9z
		 M18.8,19c-0.5,2-3.8,0.9-4.9,0.6l0.9-3.5C15.8,16.4,19.3,17,18.8,19L18.8,19z M19.3,13.9c-0.5,1.8-3.2,0.9-4.1,0.7l0.8-3.2
		C16.8,11.6,19.7,12,19.3,13.9L19.3,13.9z"/>
</g>
</svg>
