<?xml version="1.0" encoding="utf-8"?>
<!-- Generator: Adobe Illustrator 26.0.2, SVG Export Plug-In . SVG Version: 6.00 Build 0)  -->
<svg version="1.1" id="Layer_1" xmlns="http://www.w3.org/2000/svg" xmlns:xlink="http://www.w3.org/1999/xlink" x="0px" y="0px"
	 viewBox="0 0 32 32" style="enable-background:new 0 0 32 32;" xml:space="preserve">
<style type="text/css">
	.st0{fill:#62688F;}
	.st1{fill:#1BFED7;}
	.st2{fill:#A7A7A7;}
	.st3{fill:#D3D3D3;}
	.st4{fill:#FFFFFF;}
</style>
<g>
	<circle class="st0" cx="16" cy="16" r="14.4"/>
	<path class="st1" d="M16,31.5c-8.6,0-15.5-7-15.5-15.5S7.4,0.5,16,0.5s15.5,7,15.5,15.5S24.6,31.5,16,31.5z M16,2.8
		C8.7,2.8,2.8,8.7,2.8,16S8.7,29.2,16,29.2S29.2,23.3,29.2,16S23.3,2.8,16,2.8z"/>
	<polygon class="st2" points="16,13 16,20.4 23.1,16.2 	"/>
	<polygon class="st3" points="16,13 16,4.5 23.1,16.2 	"/>
	<polygon class="st4" points="16,4.5 8.9,16.2 16,13 	"/>
	<polygon class="st3" points="8.9,16.2 16,20.4 16,13 	"/>
	<polygon class="st4" points="8.9,17.6 16,27.5 16,21.7 	"/>
	<polygon class="st2" points="16,21.7 23.1,17.6 16,27.5 	"/>
</g>
</svg>
