<svg width="33" height="32" viewBox="0 0 33 32" fill="none" xmlns="http://www.w3.org/2000/svg">
<g clip-path="url(#clip0)">
<mask id="mask0" mask-type="alpha" maskUnits="userSpaceOnUse" x="0" y="0" width="33" height="32">
<path d="M0.500031 0H32.5V31.9999H0.500031V0Z" fill="white"/>
</mask>
<g mask="url(#mask0)">
<path fill-rule="evenodd" clip-rule="evenodd" d="M16.5 0C25.3368 0 32.5 7.16327 32.5 16C32.5 24.836 25.3368 32 16.5 32C7.6633 32 0.500031 24.836 0.500031 16C0.500031 7.16327 7.6633 0 16.5 0Z" fill="#2775CA"/>
</g>
<path fill-rule="evenodd" clip-rule="evenodd" d="M13.5007 27.1244C13.5007 27.5007 13.206 27.7145 12.842 27.6009C8.00437 26.0576 4.49692 21.5214 4.49692 16.1691C4.49692 10.8169 8.00437 6.28054 12.842 4.73727C13.206 4.62436 13.5007 4.83745 13.5007 5.21381V6.1429C13.5007 6.39345 13.3066 6.68836 13.0678 6.76999C9.24037 8.17545 6.49855 11.8524 6.49855 16.1627C6.49855 20.4731 9.24037 24.1507 13.0678 25.5554C13.3066 25.6434 13.5007 25.9318 13.5007 26.1833V27.1244Z" fill="white"/>
<path fill-rule="evenodd" clip-rule="evenodd" d="M17.4976 23.667C17.4976 23.9433 17.2717 24.1692 16.9957 24.1692H15.9979C15.7219 24.1692 15.4961 23.9433 15.4961 23.667V22.0861C13.3125 21.7913 12.2461 20.5675 11.9574 18.905C11.907 18.6223 12.1328 18.3652 12.4216 18.3652H13.5636C13.8019 18.3652 14.0028 18.5348 14.053 18.7728C14.2665 19.7643 14.8374 20.5235 16.5877 20.5235C17.8803 20.5235 18.7966 19.8019 18.7966 18.7232C18.7966 17.6435 18.2568 17.2359 16.3619 16.9219C13.5636 16.5455 12.2397 15.6983 12.2397 13.5023C12.2397 11.8083 13.5199 10.4908 15.5025 10.2083V8.65843C15.5025 8.38225 15.7285 8.15625 16.0043 8.15625H17.0021C17.2781 8.15625 17.5039 8.38225 17.5039 8.65843V10.2523C19.1165 10.5413 20.1392 11.4568 20.4719 12.9752C20.5345 13.2643 20.3086 13.5335 20.0139 13.5335H18.9596C18.7337 13.5335 18.5456 13.3828 18.4766 13.1633C18.1943 12.1975 17.5039 11.7835 16.3054 11.7835C14.9816 11.7835 14.2976 12.4233 14.2976 13.3204C14.2976 14.2679 14.6868 14.7444 16.7199 15.0399C19.4677 15.4163 20.8861 16.2004 20.8861 18.5413C20.8861 20.3168 19.5683 21.7537 17.5039 22.0861V23.667H17.4976Z" fill="white"/>
<path fill-rule="evenodd" clip-rule="evenodd" d="M20.1581 27.6009C19.7944 27.7146 19.4993 27.5007 19.4993 27.1244V26.196C19.4993 25.9198 19.6688 25.6627 19.9322 25.5682C23.7597 24.1627 26.5015 20.4858 26.5015 16.1755C26.5015 11.8651 23.7597 8.18819 19.9322 6.78273C19.6939 6.69473 19.4993 6.40637 19.4993 6.15491V5.22655C19.4993 4.85019 19.7944 4.63073 20.1581 4.74928C24.9957 6.29346 28.5031 10.8296 28.5031 16.1818C28.4971 21.5213 24.9957 26.0513 20.1581 27.6009Z" fill="white"/>
</g>
<defs>
<clipPath id="clip0">
<rect width="32" height="32" fill="white" transform="translate(0.5)"/>
</clipPath>
</defs>
</svg>
