<svg width="33" height="32" viewBox="0 0 33 32" fill="none" xmlns="http://www.w3.org/2000/svg">
<g clip-path="url(#clip0)">
<path d="M32.4713 15.9944C32.4713 24.7872 25.3438 31.9148 16.551 31.9148C7.75843 31.9148 0.630554 24.7872 0.630554 15.9944C0.630554 7.2017 7.75843 0.0739746 16.551 0.0739746C25.3438 0.0739746 32.4713 7.2017 32.4713 15.9944Z" fill="#1BA27A"/>
<path d="M24.0229 8.10205H8.94785V11.7415H14.6657V17.0907H18.3051V11.7415H24.0229V8.10205Z" fill="white"/>
<path d="M16.5199 17.6605C11.79 17.6605 7.95522 16.912 7.95522 15.9884C7.95522 15.065 11.7898 14.3163 16.5199 14.3163C21.2499 14.3163 25.0845 15.065 25.0845 15.9884C25.0845 16.912 21.2499 17.6605 16.5199 17.6605ZM26.1366 16.2672C26.1366 15.0763 21.8311 14.1111 16.5199 14.1111C11.2089 14.1111 6.90305 15.0763 6.90305 16.2672C6.90305 17.3159 10.2417 18.1896 14.6658 18.3832V26.0622H18.3049V18.3862C22.7631 18.1986 26.1366 17.3213 26.1366 16.2672Z" fill="white"/>
</g>
<defs>
<clipPath id="clip0">
<rect width="32" height="32" fill="white" transform="translate(0.5)"/>
</clipPath>
</defs>
</svg>
