<svg width="172px" height="172px" viewBox="0 0 172 172" version="1.1" xmlns="http://www.w3.org/2000/svg" xmlns:xlink="http://www.w3.org/1999/xlink">
    <title>FolksFinance_Token</title>
    <defs>
        <filter id="filter-1">
            <feColorMatrix in="SourceGraphic" type="matrix" values="0 0 0 0 0.070588 0 0 0 0 0.627451 0 0 0 0 0.890196 0 0 0 1.000000 0"></feColorMatrix>
        </filter>
    </defs>
    <g id="Page-2" stroke="none" stroke-width="1" fill="none" fill-rule="evenodd">
        <g id="1-Home_Pop_up" transform="translate(-848.000000, -220.000000)">
            <g id="FolksFinance_Token" transform="translate(385.000000, 54.000000)" filter="url(#filter-1)">
                <g transform="translate(463.000000, 166.000000)">
                    <path d="M63.0745202,3.85529863 C75.0186601,15.8307707 87.0874542,30.8057917 100.470784,41.0996984 C106.454186,45.7012792 113.208177,47.9168551 122.149284,43.213017 C122.251274,43.2698266 122.262606,42.5313013 122.149284,43.213017 L102.238607,63.1759243 C95.7926618,69.6080252 85.3742146,69.6080252 78.9282694,63.1759243 L42.7332194,26.8972885 C28.2280022,12.3426588 50.5297737,-8.74507944 63.1311813,3.85529863 L63.0745202,3.85529863 Z M117.106455,2.60548294 C109.863578,2.60089044 103.331333,6.97180209 100.556427,13.6795822 C97.7815214,20.3873622 99.3105883,28.1106341 104.430455,33.2471823 C109.550321,38.3837304 117.252417,39.9216978 123.944402,37.1437601 C130.636388,34.3658225 135,27.8192103 135,20.5573327 C135,10.6472373 126.99062,2.61175877 117.106455,2.60548294 L117.106455,2.60548294 Z" id="Shape" fill="#F5F5F5"></path>
                    <path d="M63.0400077,3.90684754 C74.9898788,16.0448574 87.0644639,31.2231277 100.454215,41.6567491 C106.440488,46.3207851 113.197721,48.5664321 122.143118,43.7987508 C122.245157,43.8563315 122.256494,43.1077825 122.143118,43.7987508 L121.50821,44.4321384 C92.0380248,58.8698419 56.5963373,48.8244513 38.7434482,20.9737646 C34.106354,7.32714063 52.2465758,-7.12561301 63.0966959,3.90684754 L63.0400077,3.90684754 Z M117.097869,2.64006865 C109.851517,2.63541381 103.316137,7.06564993 100.5399,13.8644717 C97.7636626,20.6632935 99.2934632,28.49139 104.415786,33.6976542 C109.53811,38.9039185 117.243901,40.46276 123.939098,37.6471186 C130.634294,34.8314773 135,28.1960108 135,20.8355709 C135,10.7909701 126.986776,2.64642966 117.097869,2.64006865 L117.097869,2.64006865 Z" id="Shape" fill="#F5F5F5"></path>
                    <path d="M109.915147,168.149073 C97.9576257,156.173167 85.8980971,141.197603 72.5124738,130.891961 C66.5393802,126.347025 59.7728966,124.074558 50.8302575,128.789928 C50.7282502,128.733117 50.7282502,129.460307 50.8302575,128.789928 L70.7443474,108.814936 C77.1965068,102.395021 87.6065209,102.395021 94.0586804,108.814936 L130.259934,145.106248 C144.778972,159.661405 122.473378,180.738545 109.858476,168.149073 L109.915147,168.149073 Z M55.8739513,169.3876 C63.1211491,169.401361 69.6621826,165.034902 72.4440453,158.326221 C75.2259081,151.61754 73.7001061,143.889374 68.5788027,138.748819 C63.4574992,133.608264 55.7504507,132.068872 49.0548973,134.849151 C42.3593438,137.629429 37.9954334,144.181195 38.0000036,151.446433 C38.0000036,161.34618 45.9987789,169.375028 55.8739513,169.3876 L55.8739513,169.3876 Z" id="Shape" fill="#F5F5F5"></path>
                    <path d="M108.953857,168.100148 C96.9898997,155.963303 84.9238797,140.786489 71.5310512,130.342354 C65.5547424,125.736341 58.7846165,123.433334 49.8371638,128.212073 C49.7351016,128.154498 49.7351016,128.89146 49.8371638,128.212073 L50.4722174,127.567231 C79.9491757,113.130913 115.399009,123.17534 133.256001,151.023354 C137.894161,164.668668 119.76111,179.120035 108.908496,168.100148 L108.953857,168.100148 Z M54.8835725,169.35532 C62.1346713,169.369266 68.6792257,164.944127 71.4625859,158.145291 C74.245946,151.346455 72.7193228,143.514433 67.5952626,138.304797 C62.4712025,133.09516 54.7600054,131.535081 48.0608479,134.352723 C41.3616904,137.170364 36.9954309,143.810177 37.0000036,151.173049 C37.0000036,161.205835 45.0030844,169.342579 54.8835725,169.35532 L54.8835725,169.35532 Z" id="Shape" fill="#F5F5F5"></path>
                    <path d="M168.144645,62.0902791 C156.169,74.0336539 141.193762,86.0903434 130.899706,99.484147 C126.298059,105.455834 124.08245,112.220725 128.786357,121.161259 C128.786357,121.263242 129.468082,121.263242 128.786357,121.161259 L108.82316,101.229194 C102.39228,94.7875419 102.39228,84.3733335 108.82316,77.9316813 L145.102322,41.7389498 C159.657162,27.2233302 180.745206,49.5236732 168.144645,62.135605 L168.144645,62.0902791 Z M169.394479,116.107421 C169.399039,108.85986 165.021893,102.324474 158.307036,99.5530961 C151.59218,96.781718 143.864354,98.3210999 138.732228,103.452396 C133.600102,108.583691 132.076167,116.294572 134.872056,122.984283 C137.667945,129.673994 144.232071,134.022754 151.49918,133.99991 C161.387229,133.968615 169.388267,125.968872 169.394479,116.107421 L169.394479,116.107421 Z" id="Shape" fill="#F5F5F5"></path>
                    <path d="M168.093075,62.043159 C155.954824,73.9943599 140.776252,86.0589498 130.342423,99.4615299 C125.678295,105.43713 123.432603,112.206454 128.200379,121.152846 C128.200379,121.254896 128.891361,121.254896 128.200379,121.152846 L127.555463,120.517868 C113.135926,91.040228 123.183559,55.6047838 151.025819,37.7438958 C164.672714,33.1062856 179.125755,51.2371871 168.093075,62.0998535 L168.093075,62.043159 Z M169.359879,116.095697 C169.3645,108.843387 164.927921,102.303718 158.12189,99.5305241 C151.31586,96.7573301 143.483106,98.2977207 138.281295,103.432379 C133.079485,108.567037 131.534858,116.28297 134.36871,122.977065 C137.202562,129.671159 143.855816,134.022769 151.221597,133.99991 C161.243906,133.968594 169.353582,125.963609 169.359879,116.095697 L169.359879,116.095697 Z" id="Shape" fill="#F5F5F5"></path>
                    <path d="M3.85092746,108.928894 C15.8268333,96.9841883 30.8023968,84.9148226 41.1080387,71.5308592 C45.6529745,65.5471737 47.9254424,58.792862 43.2100715,49.8513319 C43.2100715,49.7493372 42.5283311,49.7380045 43.2100715,49.8513319 L63.1850644,69.7629521 C69.6049785,76.2143114 69.6049785,86.6230345 63.1850644,93.0743938 L26.893752,129.259826 C12.3385951,143.777063 -8.73854472,121.474235 3.85092746,108.917561 L3.85092746,108.928894 Z M2.61242883,54.8944002 C2.60783696,62.1386507 6.98013711,68.6719219 13.6895556,71.4462942 C20.3989741,74.2206666 28.1234174,72.6894491 33.2592572,67.5669894 C38.3950971,62.4445297 39.9303143,54.7402105 37.1486951,48.0482717 C34.3670758,41.3563329 27.8167395,36.9954237 20.5535665,37.0000036 C10.6475491,37.0062585 2.6187001,45.0141904 2.61242883,54.8944002 L2.61242883,54.8944002 Z" id="Shape" fill="#F5F5F5"></path>
                    <path d="M3.90020927,109.916469 C16.033193,97.9738268 31.2051783,85.9065459 41.6459906,72.5248945 C46.2505385,66.5422425 48.5528125,59.7890975 43.775594,50.849112 C43.775594,50.7471349 43.0849118,50.7358042 43.775594,50.849112 L44.4202307,51.4723049 C58.8753613,80.9400763 48.8324302,116.390586 20.9715706,134.243654 C7.31908608,138.923266 -7.11617157,120.794018 3.90020927,109.916469 Z M2.6454663,55.8913091 C2.6408142,63.1343083 7.07046212,69.6664509 13.8678824,72.4403441 C20.6653027,75.2142372 28.491061,73.6832842 33.6942633,68.5617093 C38.8974657,63.4401345 40.452819,55.7371461 37.6347156,49.0463633 C34.8166122,42.3555804 28.1803606,37.9954245 20.8219228,38.0000036 C10.7859765,38.0062575 2.65181982,46.012806 2.6454663,55.8913091 L2.6454663,55.8913091 Z" id="Shape" fill="#F5F5F5"></path>
                </g>
            </g>
        </g>
    </g>
</svg>